<?xml version="1.0" encoding="iso-8859-1"?>
<!-- Generator: Adobe Illustrator 25.3.1, SVG Export Plug-In . SVG Version: 6.00 Build 0)  -->
<svg version="1.1" id="Layer_1" xmlns="http://www.w3.org/2000/svg" xmlns:xlink="http://www.w3.org/1999/xlink" x="0px" y="0px"
	 viewBox="0 0 600 400" style="enable-background:new 0 0 600 400;" xml:space="preserve">
<g>
	<g>
		<path style="fill:#272525;" d="M257.813,268.081c0,2.138-0.886,3.961-2.655,5.464c-1.771,1.503-3.915,2.257-6.429,2.257
			c-1.306,0-2.609-0.238-3.913-0.711c-1.305-0.473-2.422-1.227-3.353-2.257L187.108,212.5v55.582c0,2.138-0.908,3.961-2.724,5.464
			c-1.819,1.503-3.984,2.257-6.498,2.257c-2.515,0-4.66-0.754-6.426-2.257c-1.774-1.503-2.657-3.326-2.657-5.464v-78.383
			c0-1.746,0.604-3.272,1.817-4.574c1.211-1.307,2.653-2.216,4.332-2.732c1.676-0.517,3.445-0.575,5.308-0.179
			c1.863,0.398,3.495,1.346,4.891,2.851l54.495,60.331v-62.47h18.167V268.081z"/>
		<path style="fill:#272525;" d="M290.228,268.081c0,2.138-0.909,3.961-2.726,5.464c-1.813,1.503-3.982,2.257-6.496,2.257
			c-2.514,0-4.658-0.754-6.427-2.257c-1.771-1.503-2.653-3.326-2.653-5.464v-85.157h18.303V268.081z"/>
		<path style="fill:#272525;" d="M304.063,275.802v-85.157c0-2.138,0.908-3.961,2.724-5.464c1.815-1.505,3.98-2.257,6.496-2.257
			c2.515,0,4.656,0.752,6.427,2.257c1.769,1.503,2.657,3.326,2.657,5.464v69.718h47.103l-8.371,15.438H304.063z"/>
	</g>
	<g>
		<path style="fill:#272525;" d="M468.664,265.213c1.117,2.299,1.117,4.337,0,6.122c-1.117,1.776-2.703,3.045-4.751,3.795
			c-2.049,0.758-4.218,0.873-6.496,0.358c-2.286-0.515-3.983-1.919-5.101-4.215l-9.363-18.41H397.54l-9.363,18.41
			c-1.115,2.296-2.818,3.699-5.099,4.215c-2.284,0.515-16.738,0.342-16.738,0.342s4.372-8.317,5.489-10.617l40.103-78.505
			c0.744-1.344,1.792-2.472,3.143-3.386c1.352-0.909,3.051-1.363,5.101-1.363c2.144,0,3.889,0.454,5.241,1.363
			c1.35,0.913,2.398,2.042,3.143,3.386L468.664,265.213z M420.315,208.443l-14.81,28.981h29.483L420.315,208.443z"/>
	</g>
	<g>
		<path style="fill:#272525;" d="M562.982,268.081c0,2.138-0.884,3.961-2.657,5.464c-1.769,1.503-3.915,2.257-6.426,2.257
			c-1.307,0-2.611-0.238-3.91-0.711c-1.311-0.473-2.426-1.227-3.353-2.257L492.279,212.5v55.582c0,2.138-0.911,3.961-2.724,5.464
			c-1.819,1.503-3.984,2.257-6.5,2.257c-2.515,0-4.656-0.754-6.426-2.257c-1.771-1.503-2.655-3.326-2.655-5.464v-78.383
			c0-1.746,0.606-3.272,1.815-4.574c1.213-1.307,2.657-2.216,4.333-2.732c1.677-0.517,3.445-0.575,5.31-0.179
			c1.861,0.398,3.491,1.346,4.887,2.851l54.497,60.331v-62.47h18.165V268.081z"/>
	</g>
	<g>
		<path style="fill:#272525;" d="M180.937,299.62c0,0.507-0.148,1.003-0.44,1.48c-0.293,0.477-0.717,0.904-1.273,1.273
			c-0.556,0.369-1.23,0.673-2.022,0.904c-0.796,0.231-1.694,0.346-2.696,0.346c-1.004,0-1.899-0.115-2.696-0.346
			c-0.794-0.231-1.467-0.535-2.013-0.904c-0.548-0.369-0.967-0.796-1.261-1.273c-0.293-0.477-0.44-0.973-0.44-1.48v-10.27
			c0-0.511,0.148-1,0.44-1.48c0.294-0.481,0.713-0.904,1.261-1.273c0.546-0.373,1.219-0.673,2.013-0.9
			c0.796-0.234,1.692-0.35,2.696-0.35c1.002,0,1.899,0.115,2.696,0.35c0.792,0.227,1.467,0.527,2.022,0.9
			c0.556,0.369,0.98,0.792,1.273,1.273c0.292,0.481,0.44,0.969,0.44,1.48V299.62z M179.431,289.187
			c-0.137-0.215-0.341-0.461-0.6-0.73c-0.263-0.269-0.59-0.523-0.984-0.762c-0.392-0.238-0.863-0.438-1.411-0.604
			c-0.548-0.161-1.192-0.242-1.93-0.242c-0.725,0-1.361,0.081-1.911,0.242c-0.548,0.165-1.017,0.365-1.407,0.604
			c-0.396,0.239-0.723,0.492-0.986,0.762c-0.261,0.269-0.461,0.515-0.6,0.73v10.598c0.138,0.211,0.338,0.458,0.6,0.726
			c0.263,0.269,0.59,0.523,0.986,0.761c0.39,0.242,0.86,0.442,1.407,0.604c0.55,0.158,1.186,0.239,1.911,0.239
			c0.738,0,1.382-0.081,1.93-0.239c0.548-0.161,1.019-0.361,1.411-0.604c0.394-0.239,0.721-0.492,0.984-0.761
			c0.259-0.269,0.463-0.515,0.6-0.726V289.187z"/>
		<path style="fill:#272525;" d="M198.332,299.62c0,0.507-0.146,1.003-0.44,1.48c-0.292,0.477-0.717,0.904-1.271,1.273
			c-0.556,0.369-1.23,0.673-2.025,0.904c-0.794,0.231-1.694,0.346-2.696,0.346c-1.003,0-1.899-0.115-2.695-0.346
			c-0.792-0.231-1.465-0.535-2.013-0.904c-0.546-0.369-0.967-0.796-1.259-1.273c-0.294-0.477-0.44-0.973-0.44-1.48v-13.512
			c0-0.211,0.071-0.396,0.208-0.542c0.141-0.146,0.317-0.219,0.533-0.219s0.396,0.073,0.546,0.219
			c0.144,0.146,0.217,0.331,0.217,0.542v13.678c0.141,0.211,0.339,0.458,0.602,0.726c0.261,0.269,0.59,0.523,0.982,0.761
			c0.394,0.242,0.863,0.442,1.411,0.604c0.546,0.158,1.182,0.239,1.909,0.239c0.74,0,1.384-0.081,1.932-0.239
			c0.546-0.161,1.017-0.361,1.411-0.604c0.392-0.239,0.721-0.492,0.982-0.761c0.261-0.269,0.463-0.515,0.602-0.726v-13.678
			c0-0.211,0.071-0.396,0.221-0.542c0.146-0.146,0.327-0.219,0.544-0.219c0.213,0,0.391,0.073,0.531,0.219
			c0.137,0.146,0.208,0.331,0.208,0.542V299.62z"/>
		<path style="fill:#272525;" d="M209.645,287.034l-0.025,15.827c0,0.215-0.067,0.396-0.206,0.546
			c-0.139,0.142-0.317,0.215-0.534,0.215c-0.215,0-0.396-0.073-0.542-0.215c-0.146-0.15-0.219-0.331-0.219-0.546v-15.827h-5.922
			v-1.504h13.37v1.504H209.645z"/>
		<path style="fill:#272525;" d="M230.88,299.62c0,0.507-0.146,1.003-0.439,1.48c-0.294,0.477-0.715,0.904-1.261,1.273
			c-0.548,0.369-1.219,0.673-2.013,0.904c-0.794,0.231-1.694,0.346-2.696,0.346c-1.294,0-2.398-0.104-3.309-0.315
			c-0.91-0.208-1.634-0.446-2.173-0.727v-1.596c0.154,0.065,0.396,0.154,0.729,0.277c0.331,0.123,0.734,0.254,1.213,0.38
			c0.479,0.135,1.019,0.246,1.621,0.339c0.6,0.092,1.24,0.135,1.919,0.135c0.725,0,1.361-0.081,1.909-0.239
			c0.546-0.161,1.017-0.361,1.411-0.604c0.392-0.239,0.719-0.492,0.982-0.761c0.263-0.269,0.461-0.515,0.602-0.726v-3.242
			c-0.048-0.092-0.125-0.165-0.233-0.219c-0.106-0.057-0.273-0.119-0.496-0.184c-0.223-0.069-0.525-0.146-0.904-0.231
			c-0.377-0.089-0.85-0.2-1.421-0.339l-3.309-0.784c-0.51-0.111-1.017-0.223-1.527-0.338c-0.51-0.111-0.965-0.258-1.363-0.427
			c-0.404-0.169-0.732-0.385-0.986-0.65c-0.254-0.261-0.379-0.596-0.379-1.015v-3.007c0-0.511,0.145-1,0.439-1.48
			c0.294-0.481,0.717-0.904,1.273-1.273c0.554-0.373,1.228-0.673,2.025-0.9c0.794-0.234,1.692-0.35,2.694-0.35
			c1.278,0,2.378,0.108,3.299,0.311c0.915,0.211,1.644,0.45,2.184,0.73v1.596c-0.154-0.061-0.398-0.154-0.728-0.277
			c-0.333-0.127-0.738-0.25-1.215-0.381c-0.479-0.135-1.017-0.246-1.619-0.338c-0.602-0.093-1.242-0.139-1.92-0.139
			c-0.74,0-1.384,0.081-1.931,0.242c-0.55,0.165-1.019,0.365-1.413,0.604c-0.392,0.239-0.715,0.492-0.971,0.762
			c-0.256,0.269-0.452,0.515-0.59,0.73v3.168c0.046,0.093,0.125,0.169,0.231,0.219c0.11,0.054,0.275,0.115,0.498,0.185
			c0.225,0.069,0.523,0.15,0.892,0.234c0.369,0.085,0.846,0.193,1.434,0.335l3.307,0.762c0.508,0.123,1.013,0.242,1.515,0.346
			c0.5,0.107,0.956,0.25,1.365,0.419c0.408,0.169,0.738,0.385,0.984,0.646c0.246,0.261,0.369,0.608,0.369,1.042V299.62z"/>
		<path style="fill:#272525;" d="M241.754,287.034l-0.025,15.827c0,0.215-0.067,0.396-0.209,0.546
			c-0.137,0.142-0.315,0.215-0.531,0.215c-0.215,0-0.398-0.073-0.542-0.215c-0.146-0.15-0.221-0.331-0.221-0.546v-15.827h-5.922
			v-1.504h13.372v1.504H241.754z"/>
		<path style="fill:#272525;" d="M264.029,302.649c0.079,0.173,0.083,0.346,0.011,0.531c-0.069,0.184-0.188,0.319-0.359,0.396
			c-0.184,0.073-0.365,0.073-0.542,0c-0.179-0.077-0.304-0.2-0.382-0.373l-2.082-4.783h-9.207l-2.059,4.783
			c-0.077,0.173-0.206,0.296-0.392,0.373c-0.186,0.073-0.363,0.073-0.532,0c-0.169-0.077-0.291-0.211-0.358-0.396
			c-0.069-0.185-0.067-0.358,0.012-0.531l7.285-16.838c0.125-0.308,0.34-0.465,0.65-0.465c0.292,0,0.515,0.158,0.669,0.465
			L264.029,302.649z M256.071,287.799l-3.934,9.113h7.89L256.071,287.799z"/>
		<path style="fill:#272525;" d="M282.257,302.861c0,0.215-0.073,0.396-0.219,0.546c-0.146,0.142-0.327,0.215-0.544,0.215
			c-0.262,0-0.463-0.1-0.6-0.3l-11.522-15.015v14.554c0,0.215-0.073,0.396-0.217,0.546c-0.15,0.142-0.331,0.215-0.544,0.215
			c-0.217,0-0.394-0.073-0.535-0.215c-0.136-0.15-0.207-0.331-0.207-0.546v-16.776c0-0.246,0.102-0.439,0.302-0.573
			c0.169-0.127,0.354-0.177,0.554-0.154c0.202,0.023,0.363,0.119,0.486,0.288l11.543,15.015v-15.131h1.503V302.861z"/>
		<path style="fill:#272525;" d="M300.715,294.482c0,1.13-0.137,2.226-0.415,3.299c-0.277,1.069-0.656,2.03-1.132,2.868
			c-0.477,0.838-1.025,1.515-1.642,2.023c-0.619,0.508-1.273,0.765-1.967,0.765h-8.721v-17.907h8.721
			c0.694,0,1.348,0.258,1.967,0.762c0.617,0.511,1.165,1.184,1.642,2.03c0.477,0.838,0.856,1.792,1.132,2.865
			C300.579,292.26,300.715,293.355,300.715,294.482z M299.121,294.482c0-0.969-0.104-1.857-0.313-2.661
			c-0.208-0.8-0.471-1.511-0.786-2.126c-0.315-0.615-0.663-1.146-1.042-1.596c-0.377-0.446-0.742-0.804-1.096-1.065h-7.542v14.896
			h7.542c0.354-0.261,0.719-0.608,1.096-1.05c0.379-0.439,0.726-0.973,1.042-1.596c0.315-0.627,0.579-1.33,0.786-2.126
			C299.017,296.363,299.121,295.471,299.121,294.482z"/>
		<path style="fill:#272525;" d="M306.456,302.861c0,0.215-0.075,0.396-0.219,0.546c-0.15,0.142-0.33,0.215-0.546,0.215
			c-0.217,0-0.392-0.073-0.533-0.215c-0.137-0.15-0.206-0.331-0.206-0.546v-17.33h1.503V302.861z"/>
		<path style="fill:#272525;" d="M325.586,302.861c0,0.215-0.073,0.396-0.221,0.546c-0.148,0.142-0.327,0.215-0.542,0.215
			c-0.263,0-0.463-0.1-0.602-0.3l-11.52-15.015v14.554c0,0.215-0.075,0.396-0.221,0.546c-0.146,0.142-0.329,0.215-0.544,0.215
			c-0.215,0-0.39-0.073-0.531-0.215c-0.14-0.15-0.207-0.331-0.207-0.546v-16.776c0-0.246,0.1-0.439,0.3-0.573
			c0.169-0.127,0.354-0.177,0.556-0.154c0.2,0.023,0.361,0.119,0.484,0.288l11.545,15.015v-15.131h1.503V302.861z"/>
		<path style="fill:#272525;" d="M342.681,302.28c-0.279,0.185-0.634,0.361-1.065,0.531c-0.431,0.173-0.913,0.311-1.446,0.431
			c-0.533,0.111-1.108,0.208-1.723,0.277c-0.619,0.073-1.252,0.104-1.897,0.104c-1.002,0-1.9-0.115-2.694-0.346
			c-0.796-0.231-1.469-0.535-2.015-0.904c-0.548-0.369-0.967-0.796-1.26-1.273c-0.294-0.477-0.44-0.973-0.44-1.48v-10.27
			c0-0.511,0.146-1,0.44-1.48c0.293-0.481,0.711-0.904,1.26-1.273c0.546-0.373,1.219-0.673,2.015-0.9
			c0.794-0.234,1.692-0.35,2.694-0.35c1.298,0,2.399,0.108,3.309,0.311c0.91,0.211,1.634,0.45,2.174,0.73v1.596
			c-0.154-0.061-0.398-0.154-0.728-0.277c-0.333-0.127-0.738-0.25-1.215-0.381c-0.479-0.135-1.019-0.246-1.619-0.338
			c-0.602-0.093-1.242-0.139-1.921-0.139c-0.725,0-1.361,0.081-1.909,0.242c-0.548,0.165-1.019,0.365-1.409,0.604
			c-0.396,0.239-0.723,0.492-0.984,0.762c-0.263,0.269-0.463,0.515-0.602,0.73v10.598c0.138,0.211,0.338,0.458,0.602,0.726
			c0.261,0.269,0.588,0.523,0.984,0.761c0.39,0.242,0.861,0.442,1.409,0.604c0.548,0.158,1.184,0.239,1.909,0.239
			c1.017,0,1.922-0.089,2.718-0.273c0.794-0.185,1.429-0.373,1.909-0.558v-6.056h-3.611c-0.215,0-0.396-0.073-0.544-0.211
			c-0.146-0.138-0.217-0.315-0.217-0.534c0-0.215,0.071-0.396,0.217-0.546c0.148-0.142,0.329-0.215,0.544-0.215h5.114V302.28z"/>
		<path style="fill:#272525;" d="M357.487,302.861c0,0.215-0.075,0.396-0.219,0.546c-0.148,0.142-0.329,0.215-0.546,0.215
			s-0.392-0.073-0.532-0.215c-0.137-0.15-0.206-0.331-0.206-0.546v-17.33h1.503V302.861z"/>
		<path style="fill:#272525;" d="M376.617,302.861c0,0.215-0.073,0.396-0.219,0.546c-0.148,0.142-0.329,0.215-0.544,0.215
			c-0.263,0-0.463-0.1-0.602-0.3l-11.52-15.015v14.554c0,0.215-0.073,0.396-0.221,0.546c-0.146,0.142-0.327,0.215-0.544,0.215
			c-0.213,0-0.39-0.073-0.53-0.215c-0.139-0.15-0.208-0.331-0.208-0.546v-16.776c0-0.246,0.1-0.439,0.3-0.573
			c0.169-0.127,0.356-0.177,0.556-0.154c0.2,0.023,0.361,0.119,0.487,0.288l11.543,15.015v-15.131h1.503V302.861z"/>
		<path style="fill:#272525;" d="M395.075,294.482c0,1.13-0.138,2.226-0.415,3.299c-0.277,1.069-0.658,2.03-1.134,2.868
			c-0.479,0.838-1.025,1.515-1.642,2.023c-0.617,0.508-1.271,0.765-1.965,0.765h-8.721v-17.907h8.721
			c0.694,0,1.347,0.258,1.965,0.762c0.617,0.511,1.163,1.184,1.642,2.03c0.477,0.838,0.858,1.792,1.134,2.865
			C394.937,292.26,395.075,293.355,395.075,294.482z M393.481,294.482c0-0.969-0.104-1.857-0.313-2.661
			c-0.21-0.8-0.471-1.511-0.786-2.126c-0.317-0.615-0.665-1.146-1.042-1.596c-0.379-0.446-0.746-0.804-1.098-1.065h-7.54v14.896
			h7.54c0.352-0.261,0.719-0.608,1.098-1.05c0.377-0.439,0.725-0.973,1.042-1.596c0.315-0.627,0.576-1.33,0.786-2.126
			C393.378,296.363,393.481,295.471,393.481,294.482z"/>
	</g>
	<g>
		<path style="fill:#272525;" d="M412.035,299.62c0,0.507-0.146,1.003-0.439,1.48c-0.292,0.477-0.717,0.904-1.271,1.273
			c-0.558,0.369-1.23,0.673-2.027,0.904c-0.792,0.231-1.692,0.346-2.695,0.346c-1.002,0-1.9-0.115-2.696-0.346
			c-0.792-0.231-1.465-0.535-2.011-0.904c-0.548-0.369-0.967-0.796-1.262-1.273c-0.294-0.477-0.438-0.973-0.438-1.48v-10.27
			c0-0.511,0.144-1,0.438-1.48s0.713-0.904,1.262-1.273c0.546-0.373,1.219-0.673,2.011-0.9c0.796-0.234,1.694-0.35,2.696-0.35
			c1.003,0,1.903,0.115,2.695,0.35c0.796,0.227,1.469,0.527,2.027,0.9c0.554,0.369,0.978,0.792,1.271,1.273
			c0.293,0.481,0.439,0.969,0.439,1.48V299.62z M410.531,289.187c-0.138-0.215-0.338-0.461-0.602-0.73
			c-0.261-0.269-0.59-0.523-0.982-0.762c-0.392-0.238-0.865-0.438-1.411-0.604c-0.548-0.161-1.192-0.242-1.932-0.242
			c-0.723,0-1.361,0.081-1.907,0.242c-0.548,0.165-1.019,0.365-1.411,0.604c-0.394,0.239-0.721,0.492-0.984,0.762
			c-0.263,0.269-0.461,0.515-0.6,0.73v10.598c0.139,0.211,0.337,0.458,0.6,0.726c0.263,0.269,0.59,0.523,0.984,0.761
			c0.392,0.242,0.863,0.442,1.411,0.604c0.546,0.158,1.184,0.239,1.907,0.239c0.74,0,1.384-0.081,1.932-0.239
			c0.546-0.161,1.019-0.361,1.411-0.604c0.392-0.239,0.721-0.492,0.982-0.761c0.263-0.269,0.463-0.515,0.602-0.726V289.187z"/>
		<path style="fill:#272525;" d="M429.432,299.62c0,0.507-0.146,1.003-0.438,1.48c-0.294,0.477-0.717,0.904-1.273,1.273
			c-0.556,0.369-1.23,0.673-2.025,0.904c-0.796,0.231-1.694,0.346-2.696,0.346c-1.002,0-1.899-0.115-2.696-0.346
			c-0.794-0.231-1.465-0.535-2.013-0.904c-0.548-0.369-0.967-0.796-1.259-1.273c-0.294-0.477-0.44-0.973-0.44-1.48v-10.27
			c0-0.511,0.146-1,0.44-1.48c0.292-0.481,0.711-0.904,1.259-1.273c0.548-0.373,1.219-0.673,2.013-0.9
			c0.796-0.234,1.694-0.35,2.696-0.35c1.002,0,1.899,0.115,2.696,0.35c0.794,0.227,1.469,0.527,2.025,0.9
			c0.556,0.369,0.978,0.792,1.273,1.273c0.292,0.481,0.438,0.969,0.438,1.48V299.62z M427.929,289.187
			c-0.139-0.215-0.339-0.461-0.602-0.73c-0.263-0.269-0.59-0.523-0.983-0.762c-0.392-0.238-0.865-0.438-1.413-0.604
			c-0.546-0.161-1.19-0.242-1.931-0.242c-0.725,0-1.361,0.081-1.909,0.242c-0.546,0.165-1.017,0.365-1.41,0.604
			c-0.394,0.239-0.721,0.492-0.984,0.762c-0.263,0.269-0.463,0.515-0.6,0.73v10.598c0.137,0.211,0.337,0.458,0.6,0.726
			c0.263,0.269,0.59,0.523,0.984,0.761c0.393,0.242,0.863,0.442,1.41,0.604c0.548,0.158,1.184,0.239,1.909,0.239
			c0.74,0,1.384-0.081,1.931-0.239c0.548-0.161,1.021-0.361,1.413-0.604c0.393-0.239,0.719-0.492,0.983-0.761
			c0.263-0.269,0.463-0.515,0.602-0.726V289.187z"/>
	</g>
	<g>
		<path style="fill:#272525;" d="M446.041,303.438l-5.716-7.448h-4.831v6.871c0,0.215-0.075,0.396-0.221,0.546
			c-0.148,0.142-0.331,0.215-0.544,0.215c-0.215,0-0.394-0.073-0.532-0.215c-0.139-0.15-0.208-0.331-0.208-0.546v-17.33h9.83
			c0.54,0,1.012,0.169,1.413,0.496c0.4,0.335,0.731,0.754,0.994,1.261c0.263,0.511,0.459,1.077,0.59,1.692
			c0.131,0.615,0.196,1.208,0.196,1.777c0,0.577-0.065,1.165-0.196,1.784c-0.131,0.619-0.327,1.18-0.59,1.692
			c-0.263,0.508-0.594,0.926-0.994,1.257c-0.402,0.331-0.873,0.5-1.413,0.5h-1.573l5.691,7.448H446.041z M445.484,290.756
			c0-0.858-0.121-1.6-0.369-2.219c-0.246-0.615-0.594-1.115-1.042-1.503h-8.578v7.448h8.578c0.448-0.385,0.796-0.884,1.042-1.5
			C445.362,292.364,445.484,291.621,445.484,290.756z"/>
		<path style="fill:#272525;" d="M471.556,302.58c-0.54,0.281-1.265,0.519-2.175,0.727c-0.909,0.211-2.011,0.315-3.307,0.315
			c-1,0-1.899-0.115-2.694-0.346c-0.794-0.231-1.467-0.535-2.013-0.904c-0.55-0.369-0.971-0.796-1.263-1.273
			c-0.293-0.477-0.439-0.973-0.439-1.48v-10.27c0-0.511,0.146-1,0.439-1.48c0.292-0.481,0.713-0.904,1.263-1.273
			c0.546-0.373,1.219-0.673,2.013-0.9c0.794-0.234,1.694-0.35,2.694-0.35c1.296,0,2.397,0.108,3.307,0.311
			c0.91,0.211,1.634,0.45,2.175,0.73v1.596c-0.152-0.061-0.396-0.154-0.729-0.277c-0.333-0.127-0.736-0.25-1.211-0.381
			c-0.479-0.135-1.019-0.246-1.619-0.338c-0.604-0.093-1.244-0.139-1.923-0.139c-0.725,0-1.361,0.081-1.913,0.242
			c-0.546,0.165-1.015,0.365-1.403,0.604c-0.396,0.239-0.723,0.492-0.986,0.762c-0.265,0.269-0.463,0.515-0.6,0.73v10.598
			c0.136,0.211,0.334,0.458,0.6,0.726c0.263,0.269,0.59,0.523,0.986,0.761c0.388,0.242,0.858,0.442,1.403,0.604
			c0.552,0.158,1.188,0.239,1.913,0.239c0.678,0,1.319-0.043,1.923-0.135c0.6-0.093,1.14-0.204,1.619-0.339
			c0.475-0.127,0.878-0.258,1.211-0.38c0.333-0.123,0.577-0.212,0.729-0.277V302.58z"/>
		<path style="fill:#272525;" d="M475.789,303.438v-17.33c0-0.211,0.073-0.396,0.217-0.542c0.146-0.146,0.327-0.219,0.546-0.219
			c0.215,0,0.396,0.073,0.531,0.219c0.14,0.146,0.211,0.331,0.211,0.542v15.823h9.878v1.507H475.789z"/>
		<path style="fill:#272525;" d="M492.656,302.861c0,0.215-0.077,0.396-0.221,0.546c-0.15,0.142-0.331,0.215-0.544,0.215
			c-0.217,0-0.394-0.073-0.534-0.215c-0.139-0.15-0.206-0.331-0.206-0.546v-17.33h1.505V302.861z"/>
		<path style="fill:#272525;" d="M513.495,303.438v-14.577l-6.637,11.52c-0.169,0.265-0.388,0.396-0.65,0.396
			c-0.288,0-0.508-0.131-0.646-0.396l-6.66-11.52v14.577h-1.507v-17.33c0-0.211,0.069-0.396,0.207-0.542
			c0.142-0.146,0.315-0.219,0.534-0.219c0.169,0,0.311,0.046,0.423,0.138c0.119,0.093,0.215,0.204,0.292,0.327l7.356,12.724
			l7.36-12.724c0.077-0.123,0.173-0.234,0.288-0.327c0.115-0.092,0.25-0.138,0.408-0.138c0.212,0,0.393,0.073,0.542,0.219
			c0.143,0.146,0.215,0.331,0.215,0.542v17.33H513.495z"/>
		<path style="fill:#272525;" d="M534.778,302.649c0.073,0.173,0.081,0.346,0.015,0.531c-0.073,0.184-0.196,0.319-0.361,0.396
			c-0.188,0.073-0.369,0.073-0.542,0c-0.177-0.077-0.307-0.2-0.384-0.373l-2.084-4.783h-9.205l-2.057,4.783
			c-0.077,0.173-0.211,0.296-0.396,0.373c-0.184,0.073-0.361,0.073-0.534,0c-0.169-0.077-0.285-0.211-0.357-0.396
			c-0.062-0.185-0.062-0.358,0.011-0.531l7.291-16.838c0.123-0.308,0.338-0.465,0.65-0.465c0.292,0,0.511,0.158,0.669,0.465
			L534.778,302.649z M526.822,287.799l-3.934,9.113h7.886L526.822,287.799z"/>
		<path style="fill:#272525;" d="M542.687,287.034l-0.023,15.827c0,0.215-0.069,0.396-0.204,0.546
			c-0.143,0.142-0.319,0.215-0.535,0.215c-0.211,0-0.392-0.073-0.542-0.215c-0.15-0.15-0.219-0.331-0.219-0.546v-15.827h-5.925
			v-1.504h13.377v1.504H542.687z"/>
		<path style="fill:#272525;" d="M552.473,303.438v-17.146c0-0.211,0.073-0.396,0.223-0.542c0.146-0.142,0.327-0.219,0.538-0.219
			h9.79v1.504h-9.044v6.687h8.278c0.215,0,0.396,0.073,0.546,0.215c0.146,0.15,0.219,0.331,0.219,0.546
			c0,0.219-0.073,0.396-0.219,0.534c-0.15,0.139-0.331,0.211-0.546,0.211h-8.278v6.702h9.044v1.507H552.473z"/>
	</g>
	<g>
		<path style="fill:none;stroke:#272525;stroke-width:0.7763;" d="M576.428,258.672c0,0-6.214,0-6.214,6.214v4.633
			c0,0,0,6.206,6.214,6.206h4.634c0,0,6.21,0,6.21-6.206v-4.633c0,0,0-6.214-6.21-6.214H576.428z"/>
		<path style="fill:#272525;" d="M584.211,273.391l-3.576-4.945h0.534c0.419,0,0.781-0.119,1.084-0.365
			c0.304-0.246,0.546-0.546,0.734-0.919c0.193-0.373,0.335-0.78,0.415-1.223c0.089-0.446,0.135-0.858,0.135-1.242
			c0-0.392-0.046-0.811-0.135-1.257c-0.081-0.45-0.223-0.865-0.415-1.246c-0.188-0.381-0.43-0.7-0.734-0.946
			c-0.304-0.246-0.665-0.369-1.084-0.369h-6.775v11.851c0,0.211,0.073,0.4,0.219,0.554c0.142,0.161,0.315,0.238,0.519,0.238
			c0.208,0,0.385-0.077,0.531-0.238c0.15-0.154,0.223-0.342,0.223-0.554v-4.284h2.846l3.591,4.945H584.211z M581.82,266.013
			c-0.15,0.327-0.335,0.619-0.569,0.865h-5.364v-4.418h5.364c0.235,0.238,0.419,0.53,0.569,0.884
			c0.138,0.354,0.211,0.796,0.211,1.353C582.031,265.248,581.958,265.678,581.82,266.013"/>
	</g>
	<g>
		<path style="fill:#BA262C;" d="M29.516,245.653c2.809,20.776,16.123,38.202,34.428,46.773v-46.773H29.516"/>
		<path style="fill:#BA262C;" d="M63.944,182.467c-18.134,8.488-31.375,25.68-34.355,46.194h34.355V182.467"/>
		<path style="fill:#BA262C;" d="M149.67,228.661c-4.259-29.35-29.508-51.894-60.037-51.894c-2.953,0-5.858,0.221-8.7,0.63v51.264
			H149.67"/>
		<path style="fill:#BA262C;" d="M80.934,297.497c2.842,0.408,5.747,0.627,8.7,0.627c30.725,0,56.099-22.84,60.109-52.471H80.934
			V297.497"/>
		<path style="fill:#FFFFFF;" d="M149.67,228.661H80.934v-51.264c-5.992,0.86-11.699,2.596-16.99,5.07v46.194H29.589
			c-0.415,2.868-0.64,5.8-0.64,8.782c0,2.788,0.206,5.522,0.567,8.21h34.428v46.773c5.291,2.472,10.997,4.207,16.99,5.072v-51.844
			h68.809c0.363-2.688,0.567-5.421,0.567-8.21C150.31,234.461,150.087,231.529,149.67,228.661"/>
	</g>
</g>
</svg>
