<svg xmlns="http://www.w3.org/2000/svg" height="16" width="20" viewBox="0 0 640 512"><!--!Font Awesome Pro 6.5.1 by @fontawesome - https://fontawesome.com License - https://fontawesome.com/license (Commercial License) Copyright 2024 Fonticons, Inc.--><path opacity="1" fill="#1E3050" d="M0 32l32 0 176 0-9.6 12.8L184 64 32 64l0 288c20.9 0 41.6-9.9 58.2-21.2c14.7-10 25.9-21.4 37.8-34.2c11.9 12.7 23.1 24.2 37.8 34.2C182.3 342.1 203.1 352 224 352s41.6-9.9 58.2-21.2c14.7-10 25.9-21.4 37.8-34.2c3.6 3.8 7.1 7.5 10.6 11.1c-4.2 11.4-7.2 23.3-8.9 35.7c-.6-.5-1.2-1-1.7-1.5c-5.2 4.5-11.9 9.9-19.8 15.3C281.5 369.9 254.3 384 224 384s-57.6-14.1-76.2-26.8c-7.9-5.4-14.7-10.8-19.8-15.3c-5.2 4.5-11.9 9.9-19.8 15.3C89.5 369.9 62.3 384 32 384l0 64 307.2 0c5.9 11.4 12.9 22.2 21.1 32L32 480 0 480l0-32L0 64 0 32zM152 184c0-15.6 5.1-30.7 14.4-43.2L204 90.7 224 64l20 26.7 37.6 50.1c9.3 12.5 14.4 27.6 14.4 43.2c0 39.8-32.2 72-72 72s-72-32.2-72-72zm32 0c0 22.1 17.9 40 40 40s40-17.9 40-40c0-8.7-2.8-17.1-8-24l-32-42.7L192 160c-5.2 6.9-8 15.3-8 24zM240 32l176 0 32 0 0 32 0 134.6c-11.2 3.2-21.9 7.4-32 12.6L416 64 264 64 249.6 44.8 240 32zM371.3 296c25.7-44.6 73.3-72 124.7-72s99 27.4 124.7 72s25.7 99.4 0 144S547.4 512 496 512s-99-27.4-124.7-72s-25.7-99.4 0-144zM399 312c-20 34.7-20 77.3 0 112s57 56 97 56s77-21.3 97-56s20-77.3 0-112s-57-56-97-56s-77 21.3-97 56zm18.4 48l11.3-11.3c18.7-18.7 37.3-37.3 56-56L496 281.4l11.3 11.3 56 56L574.6 360 552 382.6l-11.3-11.3L512 342.6l0 89.4 0 16-32 0 0-16 0-89.4-28.7 28.7L440 382.6 417.4 360z"/></svg>