<svg xmlns="http://www.w3.org/2000/svg" height="16" width="20" viewBox="0 0 640 512"><!--!Font Awesome Pro 6.5.1 by @fontawesome - https://fontawesome.com License - https://fontawesome.com/license (Commercial License) Copyright 2024 Fonticons, Inc.--><path opacity="1" fill="#1E3050" d="M0 128l16 0 352 0c26.5 0 48-21.5 48-48s-21.5-48-48-48l-64 0-16 0 0-32 16 0 64 0c44.2 0 80 35.8 80 80s-35.8 80-80 80L16 160 0 160l0-32zM0 240l16 0 359.2 0c-10.1 9.6-19.1 20.3-26.7 32L16 272 0 272l0-32zM0 352l16 0 160 0c44.2 0 80 35.8 80 80s-35.8 80-80 80l-64 0-16 0 0-32 16 0 64 0c26.5 0 48-21.5 48-48s-21.5-48-48-48L16 384 0 384l0-32zm352 16c0-51.4 27.4-99 72-124.7s99.4-25.7 144 0s72 73.3 72 124.7s-27.4 99-72 124.7s-99.4 25.7-144 0S352 419.4 352 368zm32 0c0 40 21.3 77 56 97s77.3 20 112 0s56-57 56-97s-21.3-77-56-97s-77.3-20-112 0s-56 57-56 97zm32-16l16 0 128 0 16 0 0 32-16 0-128 0-16 0 0-32z"/></svg>