<svg xmlns="http://www.w3.org/2000/svg" height="16" width="20" viewBox="0 0 640 512"><!--!Font Awesome Pro 6.5.1 by @fontawesome - https://fontawesome.com License - https://fontawesome.com/license (Commercial License) Copyright 2024 Fonticons, Inc.--><path opacity="1" fill="#1E3050" d="M0 144c0-8.8 7.2-16 16-16l48 0 0-32 0-32 32 0 448 0 32 0 0 32 0 32 48 0c8.8 0 16 7.2 16 16l0 122.8c-9.1-12.9-19.9-24.5-32-34.5l0-72.3-32 0 0 51.2c-10.1-5.2-20.8-9.4-32-12.6l0-54.6 0-48L96 96l0 48 0 224 0 48 230.6 0c3.2 11.2 7.4 21.9 12.6 32L96 448l-32 0 0-32 0-32-48 0c-8.8 0-16-7.2-16-16L0 144zm32 16l0 192 32 0 0-192-32 0zm128 0l16 0 288 0 16 0 0 32-16 0-288 0-16 0 0-32zm0 80l16 0 199.2 0c-10.1 9.6-19.1 20.3-26.7 32L176 272l-16 0 0-32zm0 80l16 0 150.6 0c-2.9 10.3-4.9 21-5.9 32L176 352l-16 0 0-32zm211.3-24c25.7-44.6 73.3-72 124.7-72s99 27.4 124.7 72s25.7 99.4 0 144S547.4 512 496 512s-99-27.4-124.7-72s-25.7-99.4 0-144zM399 312c-20 34.7-20 77.3 0 112s57 56 97 56s77-21.3 97-56s20-77.3 0-112s-57-56-97-56s-77 21.3-97 56zm81-24l32 0 0 16 0 80 0 16-32 0 0-16 0-80 0-16zm0 128l32 0 0 32-32 0 0-32z"/></svg>