<svg xmlns="http://www.w3.org/2000/svg" height="16" width="20" viewBox="0 0 640 512"><!--!Font Awesome Pro 6.5.1 by @fontawesome - https://fontawesome.com License - https://fontawesome.com/license (Commercial License) Copyright 2024 Fonticons, Inc.--><path opacity="1" fill="#1E3050" d="M0 128l0 32 16 0 352 0c44.2 0 80-35.8 80-80s-35.8-80-80-80L304 0 288 0l0 32 16 0 64 0c26.5 0 48 21.5 48 48s-21.5 48-48 48L16 128 0 128zM0 240l0 32 16 0 332.5 0c7.6-11.7 16.6-22.4 26.7-32L16 240 0 240zM0 352l0 32 16 0 160 0c26.5 0 48 21.5 48 48s-21.5 48-48 48l-64 0-16 0 0 32 16 0 64 0c44.2 0 80-35.8 80-80s-35.8-80-80-80L16 352 0 352zm371.3-56c-25.7 44.6-25.7 99.4 0 144s73.3 72 124.7 72s99-27.4 124.7-72s25.7-99.4 0-144S547.4 224 496 224s-99 27.4-124.7 72zM399 312c20-34.7 57-56 97-56s77 21.3 97 56s20 77.3 0 112s-57 56-97 56s-77-21.3-97-56s-20-77.3 0-112zm17 40l0 32 16 0 48 0 0 48 0 16 32 0 0-16 0-48 48 0 16 0 0-32-16 0-48 0 0-48 0-16-32 0 0 16 0 48-48 0-16 0z"/></svg>