<svg xmlns="http://www.w3.org/2000/svg" height="16" width="20" viewBox="0 0 640 512"><!--!Font Awesome Pro 6.5.1 by @fontawesome - https://fontawesome.com License - https://fontawesome.com/license (Commercial License) Copyright 2024 Fonticons, Inc.--><path opacity="1" fill="#1E3050" d="M0 128l0 32 16 0 352 0c44.2 0 80-35.8 80-80s-35.8-80-80-80L304 0 288 0l0 32 16 0 64 0c26.5 0 48 21.5 48 48s-21.5 48-48 48L16 128 0 128zM0 240l0 32 16 0 332.5 0c7.6-11.7 16.6-22.4 26.7-32L16 240 0 240zM0 352l0 32 16 0 160 0c26.5 0 48 21.5 48 48s-21.5 48-48 48l-64 0-16 0 0 32 16 0 64 0c44.2 0 80-35.8 80-80s-35.8-80-80-80L16 352 0 352zm352 16c0 51.4 27.4 99 72 124.7s99.4 25.7 144 0s72-73.3 72-124.7s-27.4-99-72-124.7s-99.4-25.7-144 0S352 316.6 352 368zm32 0c0-40 21.3-77 56-97s77.3-20 112 0s56 57 56 97s-21.3 77-56 97s-77.3 20-112 0s-56-57-56-97zm25.4 0l11.3 11.3c18.7 18.7 37.3 37.3 56 56L488 446.6 510.6 424l-11.3-11.3L470.6 384l89.4 0 16 0 0-32-16 0-89.4 0 28.7-28.7L510.6 312 488 289.4l-11.3 11.3-56 56L409.4 368z"/></svg>