<svg xmlns="http://www.w3.org/2000/svg" height="16" width="20" viewBox="0 0 640 512"><!--!Font Awesome Pro 6.5.1 by @fontawesome - https://fontawesome.com License - https://fontawesome.com/license (Commercial License) Copyright 2024 Fonticons, Inc.--><path opacity="1" fill="#1E3050" d="M8.1 33.4l12.6 9.8L599.8 494.3l12.6 9.8 19.7-25.2L619.5 469 40.4 18 27.8 8.1 8.1 33.4zM96 160.7L96 432l128 80 192 0 69.8-43.6-26.7-21.1L406.8 480l-173.6 0L128 414.3l0-82.7 88.1 50.3 3.7 2.1 4.2 0 154.8 0-40.5-32-110.1 0L128 294.7l0-91.1 80.7 46.1L96 160.7zM154.2 43.6l26.7 21.1L233.2 32l173.6 0L512 97.7l0 69L411.8 224l-29 0L422 255l1.9-1.1L512 203.6l0 91.1-23 13.2 55 43.4L544 80 416 0 224 0 154.2 43.6z"/></svg>