<svg xmlns="http://www.w3.org/2000/svg" height="16" width="20" viewBox="0 0 640 512"><!--!Font Awesome Pro 6.5.1 by @fontawesome - https://fontawesome.com License - https://fontawesome.com/license (Commercial License) Copyright 2024 Fonticons, Inc.--><path opacity="1" fill="#1E3050" d="M0 224l32 3.2 71.5 7.1 33.9 3.4c-2.8-9.7-5.1-20.6-6.7-32.8C129 191.5 128 176.6 128 160C127.7 81.8 181.1 17.7 255.5 3.1C266 1.1 276.8 0 288 0l-3.2 32-7.1 71.5-3.4 33.9c9.7-2.8 20.6-5.1 32.8-6.7c13.4-1.7 28.3-2.7 44.9-2.7c53.6-.2 100.6 24.8 129.6 64.6c-12.4 1-24.4 3.3-36 6.7c-23.2-24.6-56.3-39.5-93.5-39.3l-.1 0c-29.5 0-51.9 3.3-68.8 8.2l-45.4 13.1c1.6-15.7 3.1-31.4 4.7-47.1l9.7-97.5c-54.6 15-92.4 63.9-92.2 123.1l0 .1c0 29.5 3.3 51.9 8.2 68.8l13.1 45.4-47.1-4.7-97.5-9.7c15 54.6 63.9 92.4 123.1 92.2l.1 0c29.5 0 51.9-3.3 68.8-8.2l45.4-13.1-4.7 47.1-9.7 97.5c29.2-8 53.6-25.8 70-49.6c4 11.5 9.1 22.4 15.3 32.7c-22.4 25.5-53 43.7-88.4 50.6c-10.5 2-21.3 3.1-32.5 3.1l3.2-32 7.1-71.5 3.4-33.9c-9.7 2.8-20.6 5.1-32.8 6.7C191.5 383 176.6 384 160 384C81.8 384.3 17.7 330.9 3.1 256.5C1.1 246 0 235.2 0 224zm232 32c0-13.3 10.7-24 24-24s24 10.7 24 24s-10.7 24-24 24s-24-10.7-24-24zm98.6-18.2l42.5 4.2c-11.7 11.4-21.9 24.5-30 38.9l-12.4-43.1zM352 368c0-51.4 27.4-99 72-124.7s99.4-25.7 144 0s72 73.3 72 124.7s-27.4 99-72 124.7s-99.4 25.7-144 0S352 419.4 352 368zm32 0c0 40 21.3 77 56 97s77.3 20 112 0s56-57 56-97s-21.3-77-56-97s-77.3-20-112 0s-56 57-56 97zm32-16l16 0 89.4 0-28.7-28.7L481.4 312 504 289.4l11.3 11.3c18.7 18.7 37.3 37.3 56 56L582.6 368l-11.3 11.3-56 56L504 446.6 481.4 424l11.3-11.3L521.4 384 432 384l-16 0 0-32z"/></svg>