<svg xmlns="http://www.w3.org/2000/svg" height="16" width="20" viewBox="0 0 640 512"><!--!Font Awesome Pro 6.5.1 by @fontawesome - https://fontawesome.com License - https://fontawesome.com/license (Commercial License) Copyright 2024 Fonticons, Inc.--><path opacity="1" fill="#1E3050" d="M0 368c0-42.6 18.5-80.9 48-107.3L48 32 48 0 80 0 208 0l32 0 0 32 0 228.7c29.5 26.3 48 64.7 48 107.3c0 79.5-64.5 144-144 144S0 447.5 0 368zm32 0c0 61.9 50.1 112 112 112s112-50.1 112-112c0-33.2-14.3-62.9-37.3-83.5L208 275l0-14.3L208 32 80 32l0 228.7L80 275l-10.7 9.5C46.4 305.1 32 334.8 32 368zm48 0c0-29.8 20.4-54.9 48-62l0-162 0-16 32 0 0 16 0 162c27.6 7.1 48 32.2 48 62c0 35.3-28.7 64-64 64s-64-28.7-64-64zm32 0c0 17.7 14.3 32 32 32s32-14.3 32-32s-14.3-32-32-32s-32 14.3-32 32zM320 32l16 0 160 0 16 0 0 32-16 0L336 64l-16 0 0-32zm0 128l16 0 160 0 16 0 0 32-16 0-160 0-16 0 0-32zm51.3 136c25.7-44.6 73.3-72 124.7-72s99 27.4 124.7 72s25.7 99.4 0 144S547.4 512 496 512s-99-27.4-124.7-72s-25.7-99.4 0-144zM384 368c0 29.2 11.2 55.9 29.6 75.8l23.1-23.1 4.7-4.7 6.6 0 96 0 6.6 0c1.6 1.6 3.1 3.1 4.7 4.7l23.1 23.1C596.8 423.9 608 397.2 608 368c0-61.9-50.1-112-112-112s-112 50.1-112 112zm54.5 96.1C455.3 474.2 475 480 496 480s40.7-5.8 57.4-15.9L537.3 448l-82.7 0-16.1 16.1zM440 344c0-20 10.7-38.5 28-48.5s38.7-10 56 0s28 28.5 28 48.5s-10.7 38.5-28 48.5s-38.7 10-56 0s-28-28.5-28-48.5zm32 0c0 13.3 10.7 24 24 24s24-10.7 24-24s-10.7-24-24-24s-24 10.7-24 24z"/></svg>